<svg version="1.1" id="Layer_1" xmlns="http://www.w3.org/2000/svg" xmlns:xlink="http://www.w3.org/1999/xlink" x="0px" y="0px"
	 width="100%" viewBox="0 0 1400 234" enable-background="new 0 0 1400 234" xml:space="preserve">
<path fill="#2E4087" opacity="1.000000" stroke="none" 
	d="
M1040.000000,235.000000 
	C693.333435,235.000000 347.166870,235.000000 1.000232,235.000000 
	C1.000155,157.000122 1.000155,79.000252 1.000077,1.000284 
	C467.666382,1.000190 934.332764,1.000190 1400.999268,1.000095 
	C1400.999512,78.999710 1400.999512,156.999420 1400.999756,234.999573 
	C1280.833374,235.000000 1160.666626,235.000000 1040.000000,235.000000 
M934.705200,115.829185 
	C925.383850,85.310287 916.062439,54.791382 906.712952,24.180420 
	C887.164429,24.180420 867.867126,24.180420 848.267517,24.180420 
	C831.720093,78.492973 815.192017,132.741821 798.282959,188.241196 
	C788.042664,169.936630 778.491211,152.863464 768.962097,135.830307 
	C772.380920,133.360626 775.665222,131.342331 778.541321,128.852600 
	C796.205261,113.561638 800.012451,93.580528 797.219543,71.664177 
	C794.423035,49.720467 781.883423,35.379810 760.950989,29.192419 
	C751.167847,26.300631 740.741699,24.590593 730.548157,24.280834 
	C706.902893,23.562311 683.221863,24.016502 659.555298,24.019238 
	C658.452881,24.019365 657.350464,24.251591 656.407166,24.357805 
	C656.407166,85.073067 656.407166,145.458969 656.407166,205.597885 
	C672.554565,205.597885 688.295654,205.597885 704.469604,205.597885 
	C704.469604,185.260406 704.469604,165.321716 704.469604,145.000137 
	C709.382141,145.000137 713.873047,145.244827 718.322266,144.919830 
	C721.658630,144.676117 723.309082,145.903076 724.794312,148.835648 
	C733.818481,166.653366 743.122070,184.329529 752.153015,202.143829 
	C753.632019,205.061203 755.291138,206.107132 758.620667,206.087097 
	C784.953003,205.928497 811.287170,205.926041 837.619568,206.083633 
	C841.279663,206.105545 842.760620,205.137604 843.525085,201.412689 
	C845.855652,190.057465 848.671570,178.801880 851.308777,167.463654 
	C868.390076,167.463654 885.010864,167.463654 901.989136,167.463654 
	C905.005249,180.321365 907.995361,193.068130 910.961670,205.713501 
	C928.134949,205.713501 944.872559,205.713501 962.000244,205.713501 
	C952.895630,175.763901 943.903625,146.184723 934.705200,115.829185 
M186.540375,41.035118 
	C177.104324,49.614941 170.383835,60.020779 165.988800,71.933899 
	C158.302658,92.767776 157.375381,114.219711 160.634399,135.951797 
	C163.147507,152.709930 168.969467,168.210861 180.024902,181.287079 
	C199.123138,203.876236 224.415771,211.170135 252.740814,208.626556 
	C286.887390,205.560165 310.140594,187.363281 321.864624,155.031723 
	C328.524994,136.664383 329.399780,117.572433 327.426758,98.325546 
	C325.933624,83.760109 321.678711,70.049904 314.136078,57.350998 
	C286.962891,11.601824 217.640823,12.034923 186.540375,41.035118 
M611.045776,41.441387 
	C592.234680,24.428219 569.604919,19.621933 545.149048,21.201103 
	C510.572449,23.433796 484.279510,43.963562 474.245514,77.092476 
	C466.458801,102.801689 466.714142,128.757507 475.173035,154.291031 
	C482.610107,176.740097 496.947388,193.387756 519.080322,202.647964 
	C531.748474,207.948196 545.084045,209.735077 558.715820,208.927124 
	C592.380554,206.931824 616.818298,191.194748 630.004517,159.702957 
	C639.279663,137.551605 640.112854,114.372337 636.317688,90.963669 
	C633.255737,72.077705 625.660278,55.322277 611.045776,41.441387 
M1242.485596,200.054001 
	C1257.621582,207.794128 1273.841797,210.198654 1290.527588,208.769775 
	C1323.079102,205.982254 1346.864746,190.090790 1359.041260,159.380051 
	C1370.595947,130.237350 1370.599487,100.368881 1359.759277,71.009308 
	C1350.959961,47.177521 1333.885376,31.014948 1309.146729,24.669458 
	C1298.354736,21.901346 1286.746460,21.021839 1275.562622,21.316921 
	C1241.606201,22.212860 1214.861450,42.644753 1203.961670,74.791046 
	C1197.516602,93.799347 1196.483276,113.347214 1199.201172,133.031174 
	C1203.157593,161.684586 1215.329468,185.358704 1242.485596,200.054001 
M1059.924561,200.506500 
	C1085.887085,191.534760 1102.266968,173.593735 1109.212280,147.164764 
	C1114.908691,125.488197 1115.005371,103.601593 1109.382080,81.929543 
	C1102.318604,54.707600 1084.981445,36.774818 1057.936401,29.209343 
	C1047.462891,26.279551 1036.380493,24.710464 1025.500366,24.232903 
	C1007.036133,23.422453 988.512329,23.961821 970.013550,23.961683 
	C968.751343,23.961674 967.489136,24.193447 966.388550,24.301550 
	C966.388550,85.072182 966.388550,145.465729 966.388550,206.010040 
	C985.932983,206.010040 1005.118408,206.621384 1024.240356,205.783539 
	C1035.937988,205.271011 1047.537964,202.533310 1059.924561,200.506500 
M151.172119,24.035872 
	C112.243423,24.035872 73.314735,24.035872 34.337780,24.035872 
	C34.337780,84.955925 34.337780,145.329910 34.337780,205.675705 
	C50.422169,205.675705 66.167404,205.675705 82.474922,205.675705 
	C82.474922,183.460815 82.474922,161.562469 82.474922,139.194702 
	C102.794189,139.194702 122.552971,139.194702 142.591400,139.194702 
	C142.591400,125.650246 142.591400,112.587746 142.591400,98.951370 
	C122.485741,98.951370 102.600632,98.951370 82.682045,98.951370 
	C82.682045,87.170654 82.682045,75.968132 82.682045,64.271774 
	C106.187492,64.271774 129.275803,64.271774 152.917374,64.271774 
	C152.917374,52.329430 152.951477,40.878372 152.881073,29.427959 
	C152.870346,27.684065 152.375351,25.943148 151.172119,24.035872 
M433.500000,24.003956 
	C398.274475,24.003956 363.048950,24.003956 327.991364,24.003956 
	C327.991364,37.898308 327.991364,50.958672 327.991364,64.520027 
	C344.022400,64.520027 359.610809,64.520027 375.806885,64.520027 
	C375.806885,111.894295 375.806885,158.761032 375.806885,205.698090 
	C392.162842,205.698090 407.897278,205.698090 424.160095,205.698090 
	C424.160095,158.523621 424.160095,111.646011 424.160095,64.142517 
	C440.394653,64.142517 456.106628,64.142517 471.764496,64.142517 
	C471.764496,50.443584 471.764496,37.378727 471.764496,24.003956 
	C459.112122,24.003956 446.806061,24.003956 433.500000,24.003956 
M1131.001831,74.500000 
	C1131.001831,118.230019 1131.001831,161.960037 1131.001831,205.687836 
	C1147.400513,205.687836 1163.139038,205.687836 1178.893066,205.687836 
	C1178.893066,145.032822 1178.893066,84.688484 1178.893066,24.314056 
	C1162.799438,24.314056 1147.071411,24.314056 1131.001831,24.314056 
	C1131.001831,40.914543 1131.001831,57.207272 1131.001831,74.500000 
z"/>
<path fill="#FED884" opacity="1.000000" stroke="none" 
	d="
M934.808411,116.217369 
	C943.903625,146.184723 952.895630,175.763901 962.000244,205.713501 
	C944.872559,205.713501 928.134949,205.713501 910.961670,205.713501 
	C907.995361,193.068130 905.005249,180.321365 901.989136,167.463654 
	C885.010864,167.463654 868.390076,167.463654 851.308777,167.463654 
	C848.671570,178.801880 845.855652,190.057465 843.525085,201.412689 
	C842.760620,205.137604 841.279663,206.105545 837.619568,206.083633 
	C811.287170,205.926041 784.953003,205.928497 758.620667,206.087097 
	C755.291138,206.107132 753.632019,205.061203 752.153015,202.143829 
	C743.122070,184.329529 733.818481,166.653366 724.794312,148.835648 
	C723.309082,145.903076 721.658630,144.676117 718.322266,144.919830 
	C713.873047,145.244827 709.382141,145.000137 704.469604,145.000137 
	C704.469604,165.321716 704.469604,185.260406 704.469604,205.597885 
	C688.295654,205.597885 672.554565,205.597885 656.407166,205.597885 
	C656.407166,145.458969 656.407166,85.073067 656.407166,24.357805 
	C657.350464,24.251591 658.452881,24.019365 659.555298,24.019238 
	C683.221863,24.016502 706.902893,23.562311 730.548157,24.280834 
	C740.741699,24.590593 751.167847,26.300631 760.950989,29.192419 
	C781.883423,35.379810 794.423035,49.720467 797.219543,71.664177 
	C800.012451,93.580528 796.205261,113.561638 778.541321,128.852600 
	C775.665222,131.342331 772.380920,133.360626 768.962097,135.830307 
	C778.491211,152.863464 788.042664,169.936630 798.282959,188.241196 
	C815.192017,132.741821 831.720093,78.492973 848.267517,24.180420 
	C867.867126,24.180420 887.164429,24.180420 906.712952,24.180420 
	C916.062439,54.791382 925.383850,85.310287 934.808411,116.217369 
M719.443237,107.006111 
	C725.786438,105.945175 732.445557,105.761810 738.399292,103.618797 
	C747.458923,100.357826 751.929199,90.926231 750.869568,80.357704 
	C749.913757,70.825310 745.414429,65.103661 735.352722,63.595524 
	C725.290710,62.087349 714.994812,62.139580 704.637573,61.497639 
	C704.637573,77.367020 704.637573,92.052414 704.637573,107.006004 
	C709.501099,107.006004 713.982239,107.006004 719.443237,107.006111 
M878.958801,68.597115 
	C878.232849,65.831238 877.506897,63.065369 876.780945,60.299496 
	C876.536560,60.319038 876.292236,60.338581 876.047913,60.358124 
	C870.819824,83.453484 865.591675,106.548836 860.329895,129.792664 
	C871.249084,129.792664 882.024841,129.792664 893.088440,129.792664 
	C888.380310,109.490562 883.733337,89.452194 878.958801,68.597115 
z"/>
<path fill="#FED884" opacity="1.000000" stroke="none" 
	d="
M186.803391,40.796127 
	C217.640823,12.034923 286.962891,11.601824 314.136078,57.350998 
	C321.678711,70.049904 325.933624,83.760109 327.426758,98.325546 
	C329.399780,117.572433 328.524994,136.664383 321.864624,155.031723 
	C310.140594,187.363281 286.887390,205.560165 252.740814,208.626556 
	C224.415771,211.170135 199.123138,203.876236 180.024902,181.287079 
	C168.969467,168.210861 163.147507,152.709930 160.634399,135.951797 
	C157.375381,114.219711 158.302658,92.767776 165.988800,71.933899 
	C170.383835,60.020779 177.104324,49.614941 186.803391,40.796127 
M221.107483,157.376251 
	C237.949875,174.535248 263.036224,169.753418 272.740021,146.791611 
	C281.442200,126.199966 281.460297,104.819244 273.562134,83.932022 
	C268.575043,70.743362 258.847992,62.775700 243.964493,62.672653 
	C229.952530,62.575642 219.509369,69.679825 213.698441,83.756935 
	C207.607529,98.512352 207.407867,113.921791 209.526550,129.450851 
	C210.895416,139.484055 214.000778,148.897110 221.107483,157.376251 
z"/>
<path fill="#FED884" opacity="1.000000" stroke="none" 
	d="
M611.305664,41.684471 
	C625.660278,55.322277 633.255737,72.077705 636.317688,90.963669 
	C640.112854,114.372337 639.279663,137.551605 630.004517,159.702957 
	C616.818298,191.194748 592.380554,206.931824 558.715820,208.927124 
	C545.084045,209.735077 531.748474,207.948196 519.080322,202.647964 
	C496.947388,193.387756 482.610107,176.740097 475.173035,154.291031 
	C466.714142,128.757507 466.458801,102.801689 474.245514,77.092476 
	C484.279510,43.963562 510.572449,23.433796 545.149048,21.201103 
	C569.604919,19.621933 592.234680,24.428219 611.305664,41.684471 
M555.385864,62.689396 
	C540.431030,62.042160 529.795166,69.040932 524.368225,82.463448 
	C515.504211,104.387100 515.739075,126.749390 525.298279,148.444229 
	C530.490417,160.227844 539.843628,167.256836 553.404419,167.328918 
	C567.173279,167.402115 576.672180,160.387589 581.966553,148.383728 
	C591.618469,126.500168 591.718140,104.028336 582.669067,81.958984 
	C578.015076,70.608452 569.128418,63.625015 555.385864,62.689396 
z"/>
<path fill="#FED884" opacity="1.000000" stroke="none" 
	d="
M1242.143188,199.911438 
	C1215.329468,185.358704 1203.157593,161.684586 1199.201172,133.031174 
	C1196.483276,113.347214 1197.516602,93.799347 1203.961670,74.791046 
	C1214.861450,42.644753 1241.606201,22.212860 1275.562622,21.316921 
	C1286.746460,21.021839 1298.354736,21.901346 1309.146729,24.669458 
	C1333.885376,31.014948 1350.959961,47.177521 1359.759277,71.009308 
	C1370.599487,100.368881 1370.595947,130.237350 1359.041260,159.380051 
	C1346.864746,190.090790 1323.079102,205.982254 1290.527588,208.769775 
	C1273.841797,210.198654 1257.621582,207.794128 1242.143188,199.911438 
M1263.718140,160.850693 
	C1280.770874,173.259613 1301.841187,168.241699 1310.849243,148.555634 
	C1320.805542,126.797585 1320.633301,104.269112 1311.767334,82.086792 
	C1308.238037,73.256508 1301.700439,66.846657 1292.303589,63.968887 
	C1275.044189,58.683193 1258.961792,67.017670 1252.109253,85.149063 
	C1246.553223,99.850334 1246.348877,115.100861 1248.708984,130.450104 
	C1250.466553,141.880524 1254.275635,152.375473 1263.718140,160.850693 
z"/>
<path fill="#FED984" opacity="1.000000" stroke="none" 
	d="
M1059.553223,200.650726 
	C1047.537964,202.533310 1035.937988,205.271011 1024.240356,205.783539 
	C1005.118408,206.621384 985.932983,206.010040 966.388550,206.010040 
	C966.388550,145.465729 966.388550,85.072182 966.388550,24.301550 
	C967.489136,24.193447 968.751343,23.961674 970.013550,23.961683 
	C988.512329,23.961821 1007.036133,23.422453 1025.500366,24.232903 
	C1036.380493,24.710464 1047.462891,26.279551 1057.936401,29.209343 
	C1084.981445,36.774818 1102.318604,54.707600 1109.382080,81.929543 
	C1115.005371,103.601593 1114.908691,125.488197 1109.212280,147.164764 
	C1102.266968,173.593735 1085.887085,191.534760 1059.553223,200.650726 
M1041.449707,66.932724 
	C1032.850464,63.401962 1023.929443,62.385864 1014.555420,63.107178 
	C1014.555420,97.896072 1014.555420,132.277664 1014.555420,166.630157 
	C1039.887085,168.989212 1056.239746,157.329193 1061.248535,136.941620 
	C1064.849487,122.285202 1064.980225,107.577438 1061.619263,92.924278 
	C1059.011108,81.552811 1053.148071,72.372604 1041.449707,66.932724 
z"/>
<path fill="#FFD984" opacity="1.000000" stroke="none" 
	d="
M151.638214,24.118362 
	C152.375351,25.943148 152.870346,27.684065 152.881073,29.427959 
	C152.951477,40.878372 152.917374,52.329430 152.917374,64.271774 
	C129.275803,64.271774 106.187492,64.271774 82.682045,64.271774 
	C82.682045,75.968132 82.682045,87.170654 82.682045,98.951370 
	C102.600632,98.951370 122.485741,98.951370 142.591400,98.951370 
	C142.591400,112.587746 142.591400,125.650246 142.591400,139.194702 
	C122.552971,139.194702 102.794189,139.194702 82.474922,139.194702 
	C82.474922,161.562469 82.474922,183.460815 82.474922,205.675705 
	C66.167404,205.675705 50.422169,205.675705 34.337780,205.675705 
	C34.337780,145.329910 34.337780,84.955925 34.337780,24.035872 
	C73.314735,24.035872 112.243423,24.035872 151.638214,24.118362 
z"/>
<path fill="#FFD984" opacity="1.000000" stroke="none" 
	d="
M434.000000,24.003956 
	C446.806061,24.003956 459.112122,24.003956 471.764496,24.003956 
	C471.764496,37.378727 471.764496,50.443584 471.764496,64.142517 
	C456.106628,64.142517 440.394653,64.142517 424.160095,64.142517 
	C424.160095,111.646011 424.160095,158.523621 424.160095,205.698090 
	C407.897278,205.698090 392.162842,205.698090 375.806885,205.698090 
	C375.806885,158.761032 375.806885,111.894295 375.806885,64.520027 
	C359.610809,64.520027 344.022400,64.520027 327.991364,64.520027 
	C327.991364,50.958672 327.991364,37.898308 327.991364,24.003956 
	C363.048950,24.003956 398.274475,24.003956 434.000000,24.003956 
z"/>
<path fill="#FFD984" opacity="1.000000" stroke="none" 
	d="
M1131.001831,74.000000 
	C1131.001831,57.207272 1131.001831,40.914543 1131.001831,24.314056 
	C1147.071411,24.314056 1162.799438,24.314056 1178.893066,24.314056 
	C1178.893066,84.688484 1178.893066,145.032822 1178.893066,205.687836 
	C1163.139038,205.687836 1147.400513,205.687836 1131.001831,205.687836 
	C1131.001831,161.960037 1131.001831,118.230019 1131.001831,74.000000 
z"/>
<path fill="#304187" opacity="1.000000" stroke="none" 
	d="
M718.953369,107.006058 
	C713.982239,107.006004 709.501099,107.006004 704.637573,107.006004 
	C704.637573,92.052414 704.637573,77.367020 704.637573,61.497639 
	C714.994812,62.139580 725.290710,62.087349 735.352722,63.595524 
	C745.414429,65.103661 749.913757,70.825310 750.869568,80.357704 
	C751.929199,90.926231 747.458923,100.357826 738.399292,103.618797 
	C732.445557,105.761810 725.786438,105.945175 718.953369,107.006058 
z"/>
<path fill="#304187" opacity="1.000000" stroke="none" 
	d="
M879.022583,69.005470 
	C883.733337,89.452194 888.380310,109.490562 893.088440,129.792664 
	C882.024841,129.792664 871.249084,129.792664 860.329895,129.792664 
	C865.591675,106.548836 870.819824,83.453484 876.047913,60.358124 
	C876.292236,60.338581 876.536560,60.319038 876.780945,60.299496 
	C877.506897,63.065369 878.232849,65.831238 879.022583,69.005470 
z"/>
<path fill="#2E4087" opacity="1.000000" stroke="none" 
	d="
M220.873978,157.104187 
	C214.000778,148.897110 210.895416,139.484055 209.526550,129.450851 
	C207.407867,113.921791 207.607529,98.512352 213.698441,83.756935 
	C219.509369,69.679825 229.952530,62.575642 243.964493,62.672653 
	C258.847992,62.775700 268.575043,70.743362 273.562134,83.932022 
	C281.460297,104.819244 281.442200,126.199966 272.740021,146.791611 
	C263.036224,169.753418 237.949875,174.535248 220.873978,157.104187 
z"/>
<path fill="#2E4087" opacity="1.000000" stroke="none" 
	d="
M555.848999,62.723839 
	C569.128418,63.625015 578.015076,70.608452 582.669067,81.958984 
	C591.718140,104.028336 591.618469,126.500168 581.966553,148.383728 
	C576.672180,160.387589 567.173279,167.402115 553.404419,167.328918 
	C539.843628,167.256836 530.490417,160.227844 525.298279,148.444229 
	C515.739075,126.749390 515.504211,104.387100 524.368225,82.463448 
	C529.795166,69.040932 540.431030,62.042160 555.848999,62.723839 
z"/>
<path fill="#2E4087" opacity="1.000000" stroke="none" 
	d="
M1263.443604,160.618240 
	C1254.275635,152.375473 1250.466553,141.880524 1248.708984,130.450104 
	C1246.348877,115.100861 1246.553223,99.850334 1252.109253,85.149063 
	C1258.961792,67.017670 1275.044189,58.683193 1292.303589,63.968887 
	C1301.700439,66.846657 1308.238037,73.256508 1311.767334,82.086792 
	C1320.633301,104.269112 1320.805542,126.797585 1310.849243,148.555634 
	C1301.841187,168.241699 1280.770874,173.259613 1263.443604,160.618240 
z"/>
<path fill="#2F4187" opacity="1.000000" stroke="none" 
	d="
M1041.802124,67.074379 
	C1053.148071,72.372604 1059.011108,81.552811 1061.619263,92.924278 
	C1064.980225,107.577438 1064.849487,122.285202 1061.248535,136.941620 
	C1056.239746,157.329193 1039.887085,168.989212 1014.555420,166.630157 
	C1014.555420,132.277664 1014.555420,97.896072 1014.555420,63.107178 
	C1023.929443,62.385864 1032.850464,63.401962 1041.802124,67.074379 
z"/>
</svg>